<svg width="28" height="23" viewBox="0 0 28 23" fill="none" xmlns="http://www.w3.org/2000/svg">
<g id="Group">
<path id="Vector" d="M20.8803 21.7727C23.8631 21.0005 26.4228 18.7899 27.4911 15.6484C27.4911 15.6379 27.5017 15.6273 27.5017 15.6167H20.8803V21.7727Z" fill="#8CC652"/>
<path id="Vector_2" d="M27.1314 8.62523C26.0843 6.34054 24.1381 4.46836 21.5678 3.59045L20.8803 3.34717V8.62523H27.1314Z" fill="#8CC652"/>
<path id="Vector_3" d="M6.75965 15.6062V8.61468H13.8358V0.935578L12.5877 0.512488C7.69045 -1.15872 2.37008 1.3904 0.593099 6.22421L0.445018 6.6473C-1.10984 11.5552 1.53448 16.8226 6.43175 18.4938L8.88568 19.2977C8.88568 19.3083 8.8751 19.3189 8.8751 19.3189L13.8358 21.0112V15.6062H6.75965Z" fill="#8CC652"/>
<path id="Vector_4" d="M27.1315 8.62522H20.8803V3.34716L15.3378 1.45383V1.44326L13.8464 0.935547V8.61465H6.7702V15.6062H13.8464V21.0112L15.433 21.5506C17.2629 22.1747 19.1456 22.2064 20.8803 21.7622V15.6062H27.5017C28.3055 13.2263 28.1046 10.7407 27.1315 8.62522Z" fill="white"/>
</g>
</svg>
